<svg width="7" height="12" viewBox="0 0 7 12" fill="none" xmlns="http://www.w3.org/2000/svg">
<path d="M0.507973 5.76405L5.08997 0.97205C5.14131 0.917442 5.20328 0.873924 5.27208 0.844177C5.34087 0.81443 5.41502 0.799084 5.48997 0.799084C5.56492 0.799084 5.63908 0.81443 5.70787 0.844177C5.77666 0.873924 5.83864 0.917442 5.88997 0.97205L6.42497 1.53105C6.53121 1.64431 6.59033 1.79376 6.59033 1.94905C6.59033 2.10433 6.53121 2.25379 6.42497 2.36705L2.79097 6.18305L6.42497 9.99905C6.53121 10.1123 6.59033 10.2618 6.59033 10.417C6.59033 10.5723 6.53121 10.7218 6.42497 10.835L5.88997 11.394C5.83864 11.4487 5.77666 11.4922 5.70787 11.5219C5.63908 11.5517 5.56492 11.567 5.48997 11.567C5.41502 11.567 5.34087 11.5517 5.27208 11.5219C5.20328 11.4922 5.14131 11.4487 5.08997 11.394L0.503975 6.60205C0.397702 6.48817 0.338929 6.33801 0.339672 6.18225C0.340415 6.0265 0.400618 5.8769 0.507973 5.76405Z" fill="black"/>
</svg>
