<svg width="17" height="17" viewBox="0 0 17 17" fill="none" xmlns="http://www.w3.org/2000/svg">
<path d="M10.9529 8.44902L15.6349 3.76802C15.7579 3.64515 15.8555 3.49924 15.9221 3.33863C15.9887 3.17803 16.0229 3.00587 16.0229 2.83202C16.0229 2.65816 15.9887 2.48601 15.9221 2.3254C15.8555 2.16479 15.7579 2.01889 15.6349 1.89602L15.0109 1.27202C14.888 1.14898 14.742 1.05139 14.5813 0.984797C14.4206 0.918208 14.2484 0.883935 14.0744 0.883935C13.9005 0.883935 13.7283 0.918208 13.5676 0.984797C13.4069 1.05139 13.2609 1.14898 13.1379 1.27202L8.45594 5.95202L3.77394 1.27102C3.65098 1.14798 3.50499 1.05039 3.3443 0.983797C3.18361 0.917208 3.01137 0.882935 2.83744 0.882935C2.6635 0.882935 2.49126 0.917208 2.33057 0.983797C2.16988 1.05039 2.02389 1.14798 1.90094 1.27102L1.27594 1.89502C1.15293 2.01789 1.05536 2.16379 0.988782 2.3244C0.922207 2.48501 0.887939 2.65716 0.887939 2.83102C0.887939 3.00487 0.922207 3.17703 0.988782 3.33763C1.05536 3.49824 1.15293 3.64415 1.27594 3.76702L5.95894 8.44902L1.27694 13.129C1.15393 13.2519 1.05636 13.3978 0.989782 13.5584C0.923207 13.719 0.888939 13.8912 0.888939 14.065C0.888939 14.2389 0.923207 14.411 0.989782 14.5716C1.05636 14.7322 1.15393 14.8781 1.27694 15.001L1.90094 15.625C2.02389 15.748 2.16988 15.8456 2.33057 15.9122C2.49126 15.9788 2.6635 16.0131 2.83744 16.0131C3.01137 16.0131 3.18361 15.9788 3.3443 15.9122C3.50499 15.8456 3.65098 15.748 3.77394 15.625L8.45594 10.944L13.1379 15.625C13.2609 15.748 13.4069 15.8456 13.5676 15.9122C13.7283 15.9788 13.9005 16.0131 14.0744 16.0131C14.2484 16.0131 14.4206 15.9788 14.5813 15.9122C14.742 15.8456 14.888 15.748 15.0109 15.625L15.6349 15.001C15.7579 14.8781 15.8555 14.7322 15.9221 14.5716C15.9887 14.411 16.0229 14.2389 16.0229 14.065C16.0229 13.8912 15.9887 13.719 15.9221 13.5584C15.8555 13.3978 15.7579 13.2519 15.6349 13.129L10.9529 8.44902Z" fill="#2B2B2B"/>
</svg>
