<svg width="15" height="16" viewBox="0 0 15 16" fill="none" xmlns="http://www.w3.org/2000/svg">
<path d="M13.679 4.24106L13.202 4.71806C13.8935 5.53375 14.3837 6.50044 14.6332 7.54027C14.8827 8.58009 14.8845 9.66398 14.6384 10.7046C14.3923 11.7453 13.9053 12.7136 13.2165 13.5315C12.5277 14.3494 11.6564 14.9942 10.6728 15.4138C9.6892 15.8333 8.62082 16.016 7.5537 15.9471C6.48658 15.8782 5.45057 15.5597 4.52911 15.0171C3.60765 14.4745 2.82651 13.7231 2.24862 12.8233C1.67072 11.9236 1.31223 10.9007 1.20202 9.83706H0.532017C0.438694 9.83773 0.346858 9.81369 0.265827 9.76739C0.184796 9.72109 0.117456 9.65418 0.0706411 9.57344C0.0238258 9.49271 -0.000798339 9.40103 -0.000732289 9.3077C-0.00066624 9.21438 0.0240876 9.12273 0.0710172 9.04206L1.56502 6.43506C1.61247 6.35506 1.67993 6.28879 1.76076 6.24275C1.84158 6.19672 1.933 6.17251 2.02602 6.17251C2.11903 6.17251 2.21045 6.19672 2.29128 6.24275C2.37211 6.28879 2.43956 6.35506 2.48702 6.43506L3.98202 9.04206C4.02893 9.12146 4.05418 9.21177 4.05526 9.30398C4.05633 9.39619 4.03319 9.48707 3.98815 9.56754C3.94311 9.64801 3.87774 9.71525 3.79858 9.76255C3.71941 9.80984 3.62922 9.83554 3.53702 9.83706H2.94802C3.1047 10.926 3.61074 11.9347 4.39001 12.7113C5.16929 13.4879 6.17966 13.9905 7.26916 14.1434C8.35865 14.2964 9.46835 14.0914 10.4313 13.5594C11.3943 13.0274 12.1585 12.197 12.609 11.1933C13.0595 10.1896 13.1718 9.06672 12.9292 7.99363C12.6866 6.92054 12.1021 5.95525 11.2636 5.24295C10.4251 4.53065 9.37806 4.10986 8.27986 4.04387C7.18166 3.97789 6.09173 4.27028 5.17402 4.87706C4.98886 5.00526 4.76263 5.06 4.53934 5.03061C4.31606 5.00122 4.1117 4.88981 3.96602 4.71806C3.89395 4.62305 3.84198 4.51437 3.81325 4.39863C3.78452 4.28289 3.77965 4.16252 3.79892 4.04483C3.81819 3.92715 3.8612 3.81462 3.92534 3.71409C3.98949 3.61356 4.07341 3.52713 4.17202 3.46006C5.05988 2.85725 6.07941 2.47625 7.14502 2.34906V1.36006H6.44502C6.38894 1.36019 6.33339 1.34928 6.28154 1.32794C6.22968 1.30661 6.18253 1.27526 6.14279 1.23571C6.10305 1.19615 6.07148 1.14915 6.0499 1.09739C6.02832 1.04564 6.01715 0.990138 6.01702 0.934063V0.489063C6.01675 0.432652 6.02767 0.376748 6.04913 0.324579C6.0706 0.272411 6.10219 0.225013 6.14208 0.185124C6.18197 0.145235 6.22936 0.113645 6.28153 0.0921795C6.3337 0.0707141 6.38961 0.0597985 6.44602 0.0600633H9.67302C9.72943 0.0597985 9.78533 0.0707141 9.8375 0.0921795C9.88967 0.113645 9.93707 0.145235 9.97696 0.185124C10.0168 0.225013 10.0484 0.272411 10.0699 0.324579C10.0914 0.376748 10.1023 0.432652 10.102 0.489063V0.934063C10.1023 0.990475 10.0914 1.04638 10.0699 1.09855C10.0484 1.15072 10.0168 1.19811 9.97696 1.238C9.93707 1.27789 9.88967 1.30948 9.8375 1.33095C9.78533 1.35241 9.72943 1.36333 9.67302 1.36306H8.91002V2.36306C10.2452 2.53465 11.4974 3.10519 12.503 4.00006L12.932 3.55506L12.614 3.25506C12.5715 3.21588 12.5372 3.16855 12.5133 3.11588C12.4894 3.06321 12.4763 3.00627 12.4748 2.94845C12.4733 2.89063 12.4835 2.83309 12.5046 2.77926C12.5258 2.72543 12.5575 2.67639 12.598 2.63506L12.932 2.26906C13.0112 2.18468 13.12 2.13422 13.2356 2.12826C13.3512 2.12229 13.4645 2.16128 13.552 2.23706L14.852 3.44506C14.9364 3.52427 14.9869 3.63305 14.9928 3.74862C14.9988 3.8642 14.9598 3.9776 14.884 4.06506L14.534 4.43106C14.4549 4.51567 14.3461 4.56629 14.2305 4.57226C14.1148 4.57822 14.0014 4.53908 13.914 4.46306L13.676 4.24006L13.679 4.24106ZM8.94202 8.21606C8.79746 8.06984 8.62189 7.95798 8.42827 7.88875C8.23466 7.81952 8.02797 7.79469 7.82347 7.8161C7.61897 7.83751 7.4219 7.90461 7.24683 8.01244C7.07175 8.12027 6.92316 8.26607 6.81202 8.43906C6.66064 8.66175 6.5797 8.9248 6.5797 9.19406C6.5797 9.46333 6.66064 9.72638 6.81202 9.94906C6.97895 10.2034 7.22602 10.3948 7.51405 10.4928C7.80208 10.5908 8.11459 10.5898 8.40202 10.4901L10.135 11.9051C10.2024 11.9623 10.2887 11.9924 10.3771 11.9895C10.4654 11.9866 10.5496 11.9509 10.6131 11.8894C10.6766 11.8279 10.7149 11.7449 10.7206 11.6567C10.7264 11.5685 10.699 11.4813 10.644 11.4121L9.24402 9.66006C9.33394 9.41489 9.3535 9.14946 9.30049 8.89376C9.24747 8.63805 9.124 8.40227 8.94402 8.21306L8.94202 8.21606Z" fill="black"/>
</svg>
