<svg width="16" height="12" viewBox="0 0 16 12" fill="none" xmlns="http://www.w3.org/2000/svg">
<path d="M15.9971 2.25399C15.9984 2.37693 15.9745 2.49883 15.9269 2.61217C15.8792 2.72551 15.8089 2.82789 15.7201 2.91299L7.39613 11.237C7.21738 11.4041 6.98182 11.497 6.73713 11.497C6.49243 11.497 6.25688 11.4041 6.07813 11.237L1.25713 6.41599C1.09003 6.23724 0.99707 6.00169 0.99707 5.75699C0.99707 5.5123 1.09003 5.27674 1.25713 5.09799L2.57513 3.77999C2.66092 3.69212 2.76341 3.6223 2.87659 3.57462C2.98976 3.52695 3.11132 3.50239 3.23413 3.50239C3.35693 3.50239 3.4785 3.52695 3.59167 3.57462C3.70484 3.6223 3.80734 3.69212 3.89313 3.77999L6.73713 6.64099L13.0841 0.276992C13.1699 0.189122 13.2724 0.119297 13.3856 0.0716228C13.4988 0.0239489 13.6203 -0.000610352 13.7431 -0.000610352C13.8659 -0.000610352 13.9875 0.0239489 14.1007 0.0716228C14.2138 0.119297 14.3163 0.189122 14.4021 0.276992L15.7211 1.59499C15.8116 1.67871 15.8832 1.78083 15.931 1.8945C15.9788 2.00817 16.0017 2.13074 15.9981 2.25399H15.9971Z" fill="#5CBA0E"/>
</svg>
